<svg xmlns="http://www.w3.org/2000/svg" width="187" height="81" fill="#fff"><path fill-rule="evenodd" d="M146.998 80.099c-21.808 0-39.551-17.764-39.551-39.599 0-21.835 17.743-39.599 39.551-39.599 21.808 0 39.551 17.764 39.551 39.599 0 21.835-17.743 39.599-39.551 39.599zm0-75.922c-20.003 0-36.278 16.294-36.278 36.323 0 20.028 16.275 36.322 36.278 36.322 20.004 0 36.278-16.294 36.278-36.322 0-20.029-16.274-36.323-36.278-36.323zm29.346 44.36v2.955h-13.938V29.507h13.938v2.956h-10.53v6.399h9.968v2.864h-9.968v6.811h10.53zm-27.716 2.955l-7.821-21.985h3.682l5.98 18.176h.076l5.981-18.176h3.697l-7.821 21.985h-3.774zm-13.649-21.985h3.408v21.985h-3.408V29.507zm-16.556 0h3.408v19.03h10.241v2.955h-13.649V29.507zM94.662 49.04c2.023 0 3.347-1.112 3.727-2.971h3.165c-.35 3.413-3.074 5.728-6.923 5.728-4.58 0-7.562-3.138-7.562-8.318 0-5.088 2.982-8.302 7.531-8.302 4.124 0 6.634 2.65 6.924 5.804h-3.135c-.334-1.707-1.613-3.062-3.758-3.062-2.541 0-4.215 2.117-4.215 5.56 0 3.519 1.689 5.561 4.246 5.561zM82.871 33.12a1.9 1.9 0 0 1-1.902-1.889 1.89 1.89 0 0 1 1.902-1.889c1.05 0 1.887.838 1.887 1.889a1.888 1.888 0 0 1-1.887 1.889zm-11.304 8.79l2.602.594c3.271.762 4.519 2.041 4.519 4.357 0 2.925-2.723 4.936-6.497 4.936-4.002 0-6.406-1.965-6.71-5.012h3.256c.304 1.676 1.446 2.498 3.454 2.498 1.978 0 3.195-.822 3.195-2.132 0-1.036-.593-1.646-2.343-2.042l-2.602-.609c-3.043-.701-4.549-2.163-4.549-4.494 0-2.864 2.495-4.829 6.177-4.829 3.728 0 6.147 2.071 6.254 5.027h-3.089c-.183-1.554-1.324-2.529-3.165-2.529-1.78 0-2.967.868-2.967 2.148 0 1.005.731 1.691 2.465 2.087zm-11.654 6.871h-.076c-.882 1.919-2.511 3.001-4.96 3.001-3.485 0-5.615-2.27-5.615-5.942V35.466h3.287v9.735c0 2.437 1.156 3.747 3.423 3.747 2.374 0 3.804-1.645 3.804-4.143v-9.339h3.287v16.026h-3.15v-2.711zM42.782 35.314h-.106l-6.619 16.178h-2.526l-6.633-16.178h-.107v16.178h-3.104V29.509h3.941l7.106 17.52h.121l7.091-17.52h3.956v21.983h-3.12V35.314zm-24.594 13.4c-.995 1.466-2.019 2.902-3.657 2.932-1.58.029-2.107-.939-3.92-.939-1.813 0-2.398.909-3.891.968-1.579.058-2.778-1.555-3.772-3.019-2.049-2.96-3.599-8.352-1.493-11.986 1.024-1.817 2.897-2.959 4.914-2.989 1.551-.028 2.984 1.027 3.921 1.027.936 0 2.602-1.231 4.562-1.114.761.059 2.955.293 4.359 2.373-.117.088-2.603 1.524-2.574 4.542.029 3.604 3.159 4.806 3.188 4.836-.029.088-.496 1.7-1.637 3.369zM10.087 33.33c-.176-1.352.499-2.791 1.262-3.673.849-1.029 2.316-1.764 3.519-1.823.147 1.411-.411 2.792-1.232 3.821-.851.999-2.199 1.792-3.549 1.675zm74.427 18.162h-3.286V35.466h3.286v16.026z"/></svg>
